# AST/ASF file generated using VICON BodyLanguage
# -----------------------------------------------
:version 1.10
:name VICON
:units
  mass 1.0
  length 0.45
  angle deg
:documentation
   .ast/.asf automatically generated from VICON data using
   VICON BodyBuilder and BodyLanguage model FoxedUp or BRILLIANT.MOD
:root
   order TX TY TZ RX RY RZ
   axis XYZ
   position 0 0 0  
   orientation 0 0 0 
:bonedata
  begin
     id 1 
     name lhipjoint
     direction 0.528046 -0.759594 0.379717 
     length 2.39752 
     axis 0 0 0  XYZ
  end
  begin
     id 2 
     name lfemur
     direction 0.34202 -0.939693 0  
     length 7.31175  
     axis 0 0 20  XYZ
    dof rx ry rz
    limits (-160.0 20.0)
           (-70.0 70.0)
           (-60.0 70.0)
  end
  begin
     id 3 
     name ltibia
     direction 0.34202 -0.939693 0   
     length 7.52482   
     axis 0 0 20   XYZ
    dof rx
    limits (-10.0 170.0)
  end
  begin
     id 4 
     name lfoot
     direction 0.0675379 -0.185559 0.980309   
     length 2.00961   
     axis -90 7.62852e-016 20   XYZ
    dof rx rz
    limits (-45.0 90.0)
           (-70.0 20.0)
  end
  begin
     id 5 
     name ltoes
     direction 1.5352e-011 -4.22286e-011 1   
     length 1.01383   
     axis -90 7.62852e-016 20   XYZ
    dof rx
    limits (-90.0 20.0)
  end
  begin
     id 6 
     name rhipjoint
     direction -0.510274 -0.769251 0.384544   
     length 2.36742  
     axis 0 0 0  XYZ 
  end
  begin
     id 7 
     name rfemur
     direction -0.34202 -0.939693 0   
     length 7.45325   
     axis 0 0 -20   XYZ
    dof rx ry rz
    limits (-160.0 20.0)
           (-70.0 70.0)
           (-70.0 60.0)
  end
  begin
     id 8 
     name rtibia
     direction -0.34202 -0.939693 0   
     length 7.49587   
     axis 0 0 -20   XYZ
    dof rx
    limits (-10.0 170.0)
 end
 begin
     id 9 
     name rfoot
     direction -0.106475 -0.292536 0.950308   
     length 2.20898  
     axis -90 -7.62852e-016 -20   XYZ
    dof rx rz
    limits (-45.0 90.0)
           (-20.0 70.0)
  end
  begin
     id 10 
     name rtoes
     direction -1.53597e-011 -4.22023e-011 1   
     length 1.10065   
     axis -90 -7.62852e-016 -20   XYZ
    dof rx
    limits (-90.0 20.0)
  end
  begin
     id 11 
     name lowerback
     direction 0.0260024 0.998026 -0.0571652   
     length 2.11214   
     axis 0 0 0   XYZ
    dof rx ry rz
    limits (-20.0 45.0)
           (-30.0 30.0)
           (-30.0 30.0)
  end
  begin
     id 12 
     name upperback
     direction 0.0216202 0.999542 -0.0211766   
     length 2.11689   
     axis 0 0 0   XYZ
    dof rx ry rz
    limits (-20.0 45.0)
           (-30.0 30.0)
           (-30.0 30.0)
  end
  begin
     id 13 
     name thorax
     direction 0.00883312 0.999944 0.00589057   
     length 2.11821   
     axis 0 0 0   XYZ
    dof rx ry rz
    limits (-20.0 45.0)
           (-30.0 30.0)
           (-30.0 30.0)
  end
  begin
     id 14 
     name lowerneck
     direction -0.059386 0.994433 0.0870401   
     length 1.81176   
     axis 0 0 0   XYZ
    dof rx ry rz
    limits (-20.0 45.0)
           (-30.0 30.0)
           (-30.0 30.0)
  end
  begin
     id 15 
     name upperneck
     direction 0.0506457 0.97328 -0.223967   
     length 1.82382   
     axis 0 0 0   XYZ
    dof rx ry rz
    limits (-20.0 45.0)
           (-30.0 30.0)
           (-30.0 30.0)
  end
  begin
     id 16
     name head
     direction 0.0205902 0.996147 -0.0852487  
     length 1.84805  
     axis 0 0 0   XYZ
    dof rx ry rz
    limits (-20.0 45.0)
           (-30.0 30.0)
           (-30.0 30.0)
  end
  begin
     id 17 
     name lclavicle
     direction 0.949493 0.303881 -0.0782325  
     length 3.60584  
     axis 0 0 0   XYZ
    dof ry rz
    limits (-20.0 10.0)
           (0.0 20.0)
  end
  begin
     id 18 
     name lhumerus
     direction 1 -4.48965e-011 1.48782e-027   
     length 4.95681   
     axis 180 -30 -90   XYZ
    dof rx ry rz
    limits (-60.0 90.0)
           (-90.0 90.0)
           (-90.0 90.0)
  end
  begin
     id 19
     name lradius
     direction 1 -4.48952e-011 2.06528e-027   
     length 3.40915   
     axis 180 -30 -90   XYZ
    dof rx
    limits (-10.0 170.0)
  end
  begin
     id 20
     name lwrist
     direction 1 -4.48964e-011 1.28021e-027   
     length 1.70457   
     axis -1.61767e-015 90 90   XYZ
    dof ry
    limits (-180.0 0.0)
 end
  begin
     id 21 
     name lhand
     direction 1 -4.49094e-011 2.54887e-027   
     length 0.616403   
     axis -1.63363e-015 90 90   XYZ
    dof rx rz
    limits (-90.0 90.0)
           (-45.0 45.0)
  end
  begin
     id 22 
     name lfingers
     direction 1 -4.49002e-011 5.11407e-027   
     length 0.49696   
     axis -3.26723e-015 90 90   XYZ
    dof rx
    limits (0.0 90.0)
  end
  begin
     id 23
     name lthumb
     direction 0.707107 -6.34998e-011 0.707107   
     length 0.713539   
     axis -90 45 -2.25915e-014   XYZ
    dof rx rz
    limits (-45.0 45.0)
           (-45.0 45.0)
  end
  begin
     id 24 
     name rclavicle
     direction -0.937751 0.334612 -0.0930482   
     length 3.46287  
     axis 0 0 0   XYZ 
    dof ry rz
    limits (-10.0 20.0)
           (-20.0 0.0)
  end
  begin
     id 25 
     name rhumerus
     direction -1 -4.48962e-011 3.59972e-027  
     length 5.352   
     axis 180 30 90   XYZ
    dof rx ry rz
    limits (-90.0 60.0)
           (-90.0 90.0)
           (-90.0 90.0)
  end
  begin
     id 26 
     name rradius
     direction -1 -4.48987e-011 -3.76925e-027   
     length 3.43721   
     axis 180 30 90   XYZ
    dof rx
    limits (-10.0 170.0)
  end
  begin
     id 27 
     name rwrist
     direction -1 -4.48943e-011 1.28112e-027   
     length 1.7186   
     axis -1.61767e-015 -90 -90   XYZ
    dof ry
    limits (-180.0 0.0)
  end
  begin
     id 28
     name rhand
     direction -1 -4.49027e-011 2.55483e-027   
     length 0.72009   
     axis -1.63363e-015 -90 -90   XYZ
    dof rx rz
    limits (-90.0 90.0)
           (-45.0 45.0)
  end
  begin
     id 29
     name rfingers
     direction -1 -4.48827e-011 5.14506e-027   
     length 0.580555   
     axis -3.26723e-015 -90 -90   XYZ
    dof rx
    limits (0.0 90.0)
  end
  begin
     id 30
     name rthumb
     direction -0.707107 -6.34936e-011 0.707107   
     length 0.833564   
     axis -90 -45 2.25915e-014   XYZ
    dof rx rz
    limits (-45.0 45.0)
           (-45.0 45.0)
  end
:hierarchy
  begin
    root lhipjoint rhipjoint lowerback
    lhipjoint lfemur
    lfemur ltibia
    ltibia lfoot
    lfoot ltoes
    rhipjoint rfemur
    rfemur rtibia
    rtibia rfoot
    rfoot rtoes
    lowerback upperback
    upperback thorax
    thorax lowerneck lclavicle rclavicle
    lowerneck upperneck
    upperneck head
    lclavicle lhumerus
    lhumerus lradius
    lradius lwrist
    lwrist lhand lthumb
    lhand lfingers
    rclavicle rhumerus
    rhumerus rradius
    rradius rwrist
    rwrist rhand rthumb
    rhand rfingers
  end

#!OML:ASF H:\Terrain\Patient Classification 1\Terrain2\Thursday\justin.ASF
:FULLY-SPECIFIED
:DEGREES
1
root -11.4567 17.4407 -0.0493776 -178.995 -27.0316 -177.741
lowerback 2.18961 5.33699 5.70733
upperback 0.619768 7.17153 1.8093
thorax -0.115581 3.55502 -1.43665
lowerneck -15.1523 5.83313 -4.53699
upperneck 33.6458 6.94796 4.36572
head 13.5131 2.47256 3.46043
rclavicle -1.03865e-014 -2.62396e-014
rhumerus -24.5415 -6.32531 -81.8657
rradius 46.2876
rwrist -16.6955
rhand -22.2955 13.8472
rfingers 7.12502
rthumb 4.12346 -16.0926
lclavicle -1.03865e-014 -2.62396e-014
lhumerus -35.5778 7.3213 83.6267
lradius 21.95
lwrist -2.48388
lhand -14.5502 23.5584
lfingers 7.12502
lthumb 11.5985 53.2174
rfemur -5.8103 -13.2497 26.9161
rtibia 29.7969
rfoot -23.6447 -12.3291
rtoes 13.1636
lfemur -12.8656 -5.92733 -15.7968
ltibia 31
lfoot -10.9364 -26.8372
ltoes 17.4238
2
root -11.4486 17.434 -0.0475355 -178.92 -26.7466 -177.799
lowerback 2.12955 5.22221 5.52654
upperback 0.644711 7.00993 1.83606
thorax -0.0921079 3.47534 -1.30456
lowerneck -15.3378 5.21193 -5.02276
upperneck 34.3264 6.00298 4.58797
head 13.8809 1.9631 3.52488
rclavicle 1.36167e-014 -3.18055e-015
rhumerus -24.5076 -5.78007 -82.1609
rradius 46.7621
rwrist -17.0933
rhand -22.0009 14.1556
rfingers 7.12502
rthumb 4.40792 -15.7785
lclavicle 1.36167e-014 -3.18055e-015
lhumerus -35.6374 7.19789 83.8452
lradius 22.3822
lwrist -2.07838
lhand -14.5042 24.1019
lfingers 7.12502
lthumb 11.643 53.7584
rfemur -5.96028 -13.1888 26.8668
rtibia 29.9564
rfoot -23.5802 -12.1699
rtoes 14.4517
lfemur -12.8163 -6.01042 -15.8085
ltibia 30.9239
lfoot -10.9637 -26.5808
ltoes 18.5897
3
root -11.4355 17.426 -0.0519352 -178.974 -26.5329 -178.015
lowerback 2.22782 5.10611 5.23293
upperback 0.721249 6.85736 1.76022
thorax -0.102955 3.40226 -1.22823
lowerneck -15.4718 4.58925 -5.25566
upperneck 34.9773 4.99654 4.69903
head 14.2603 1.44625 3.4859
rclavicle 6.76365e-014 -9.54166e-015
rhumerus -24.5884 -5.51253 -82.4563
rradius 47.2665
rwrist -16.9356
rhand -21.4544 14.4143
rfingers 7.12502
rthumb 4.93562 -15.5082
lclavicle 6.76365e-014 -9.54166e-015
lhumerus -35.6814 5.32565 85.1049
lradius 23.1951
lwrist 2.13646
lhand -18.0704 26.0213
lfingers 7.12502
lthumb 8.20239 55.8421
rfemur -5.83026 -12.9477 26.6846
rtibia 30.0639
rfoot -23.6468 -12.2478
rtoes 18.577
lfemur -12.5558 -6.35218 -15.997
ltibia 30.8662
lfoot -10.8439 -26.1148
ltoes 18.5989
4
root -11.4227 17.4211 -0.0579093 -179.014 -26.3095 -178.18
lowerback 2.29555 4.98416 4.97449
upperback 0.803988 6.69289 1.72335
thorax -0.0905789 3.32259 -1.12713
lowerneck -15.474 3.98966 -5.65904
upperneck 35.4176 4.07253 4.82519
head 14.5133 0.960307 3.47796
rclavicle -8.01102e-014 2.70347e-014
rhumerus -24.607 -5.16538 -82.7155
rradius 47.7208
rwrist -16.7216
rhand -21.212 14.8669
rfingers 7.12502
rthumb 5.16963 -15.0501
lclavicle -8.01102e-014 2.70347e-014
lhumerus -35.6237 4.19793 85.9567
lradius 23.9288
lwrist 4.5091
lhand -19.9235 28.3758
lfingers 7.12502
lthumb 6.41364 58.2587
rfemur -5.73866 -12.5799 26.5751
rtibia 30.1704
rfoot -23.8579 -12.3375
rtoes 13.3867
lfemur -12.3503 -6.84798 -16.1517
ltibia 30.8236
lfoot -11.1094 -25.4232
ltoes 17.8438
5
root -11.4088 17.4159 -0.062973 -179.103 -26.2071 -178.201
lowerback 2.35677 4.80489 4.7976
upperback 0.873081 6.45002 1.77869
thorax -0.0930092 3.20106 -0.975582
lowerneck -15.3827 3.41248 -6.27341
upperneck 35.8816 3.20965 4.98092
head 14.7557 0.47094 3.52355
rclavicle -5.25785e-014 7.15625e-015
rhumerus -24.4746 -4.63218 -82.9582
rradius 47.9115
rwrist -16.5995
rhand -21.4574 14.8906
rfingers 7.12502
rthumb 4.93267 -15.0319
lclavicle -5.25785e-014 7.15625e-015
lhumerus -35.5455 4.01503 86.312
lradius 24.2465
lwrist 5.29916
lhand -21.677 29.5005
lfingers 7.12502
lthumb 4.72071 59.4279
rfemur -5.64353 -12.3062 26.6278
rtibia 30.2698
rfoot -24.0679 -12.4194
rtoes 16.8939
lfemur -12.1812 -6.90841 -16.1316
ltibia 30.7827
lfoot -11.6588 -25.1507
ltoes 16.2622
6
root -11.3945 17.4086 -0.0720432 -179.25 -26.2633 -178.239
lowerback 2.43004 4.56381 4.60307
upperback 0.966959 6.12392 1.82641
thorax -0.0797804 3.03848 -0.820175
lowerneck -15.2632 2.80372 -6.77583
upperneck 36.3776 2.29048 4.98745
head 15.0321 -0.0536182 3.47622
rclavicle -2.13694e-015 -3.49861e-014
rhumerus -24.3918 -4.07616 -83.193
rradius 48.0969
rwrist -16.4793
rhand -21.4415 14.4631
rfingers 7.12502
rthumb 4.94807 -15.4591
lclavicle -2.13694e-015 -3.49861e-014
lhumerus -35.3396 5.41237 85.6142
lradius 23.7532
lwrist 3.06792
lhand -20.4372 26.6559
lfingers 7.12502
lthumb 5.9177 56.5532
rfemur -5.43043 -12.2534 26.6566
rtibia 30.3115
rfoot -24.1835 -12.4327
rtoes 16.0356
lfemur -11.979 -6.80539 -16.1066
ltibia 30.7958
lfoot -11.7439 -25.2688
ltoes 15.9504
7
root -11.3913 17.4108 -0.0744586 -178.974 -25.9121 -178.474
lowerback 2.23732 4.50214 4.42936
upperback 1.01041 6.02877 1.73332
thorax 0.0597912 2.99605 -0.800009
lowerneck -15.3544 2.18867 -7.25515
upperneck 36.9456 1.33029 5.08468
head 15.4083 -0.578238 3.46165
rclavicle 9.64106e-014 -6.04305e-014
rhumerus -24.4137 -3.71289 -83.4006
rradius 48.5526
rwrist -16.6242
rhand -21.1786 14.1219
rfingers 7.12502
rthumb 5.20185 -15.7942
lclavicle 9.64106e-014 -6.04305e-014
lhumerus -34.9807 8.00312 84.0983
lradius 22.8291
lwrist -2.08559
lhand -15.8874 22.4566
lfingers 7.12502
lthumb 10.3087 52.1839
rfemur -5.65204 -12.2571 26.4057
rtibia 30.335
rfoot -24.0908 -12.0237
rtoes 16.312
lfemur -12.1158 -6.85025 -16.3501
ltibia 30.8403
lfoot -12.0464 -24.7888
ltoes 15.9463
8
root -11.3886 17.4084 -0.0809009 -178.898 -25.6509 -178.356
lowerback 2.06035 4.47405 4.5895
upperback 1.01298 5.98257 1.71907
thorax 0.177203 2.9755 -0.885473
lowerneck -15.3753 1.65864 -7.88568
upperneck 37.5009 0.426415 5.45533
head 15.7672 -1.06137 3.59645
rclavicle -3.42904e-014 1.35174e-014
rhumerus -24.531 -3.60252 -83.5239
rradius 48.9863
rwrist -16.6214
rhand -21.1918 13.8457
rfingers 7.12502
rthumb 5.18919 -16.0708
lclavicle -3.42904e-014 1.35174e-014
lhumerus -34.806 8.21802 84.1351
lradius 22.9084
lwrist -2.64357
lhand -15.0069 22.2692
lfingers 7.12502
lthumb 11.1581 51.9525
rfemur -5.79408 -12.3076 26.4992
rtibia 30.3642
rfoot -24.1873 -11.7065
rtoes 15.5255
lfemur -12.2142 -6.95551 -16.2335
ltibia 30.9108
lfoot -12.5144 -24.3089
ltoes 15.1826
9
root -11.3822 17.4035 -0.0867144 -178.933 -25.259 -178.054
lowerback 2.02178 4.48642 4.91514
upperback 0.923579 6.00409 1.71622
thorax 0.141958 2.98464 -1.06671
lowerneck -15.1421 1.20827 -8.55272
upperneck 37.9874 -0.430545 5.91541
head 16.0437 -1.52264 3.77754
rclavicle -2.20651e-014 -1.82882e-014
rhumerus -24.6179 -3.42097 -83.7013
rradius 48.9472
rwrist -16.2716
rhand -21.4087 13.8288
rfingers 7.12502
rthumb 4.9797 -16.0927
lclavicle -2.20651e-014 -1.82882e-014
lhumerus -34.9987 4.57065 86.5942
lradius 24.8633
lwrist 4.84293
lhand -21.7507 31.1595
lfingers 7.12502
lthumb 4.6495 61.0885
rfemur -5.89187 -12.2177 26.808
rtibia 30.4131
rfoot -24.253 -11.4494
rtoes 14.9451
lfemur -12.2499 -7.16663 -15.9139
ltibia 30.9845
lfoot -12.9366 -23.7001
ltoes 13.9241
10
root -11.3714 17.3966 -0.0909201 -178.96 -24.8491 -178.007
lowerback 2.10217 4.42728 4.94185
upperback 0.895694 5.93362 1.66517
thorax 0.0726468 2.94854 -1.14127
lowerneck -14.8231 0.744003 -8.78984
upperneck 38.3216 -1.27299 5.90395
head 16.2355 -1.97113 3.66825
rclavicle 1.38155e-013 1.11319e-014
rhumerus -24.6075 -2.93238 -84.0114
rradius 48.6756
rwrist -16.0615
rhand -21.5349 14.1221
rfingers 7.12502
rthumb 4.8579 -15.8022
lclavicle 1.38155e-013 1.11319e-014
lhumerus -34.986 6.96476 84.7847
lradius 23.762
lwrist -1.04851
lhand -18.6265 25.6255
lfingers 7.12502
lthumb 7.66567 55.4666
rfemur -5.88132 -12.0242 26.8788
rtibia 30.4498
rfoot -24.2282 -11.2698
rtoes 15.7843
lfemur -12.1722 -7.62833 -15.8616
ltibia 31.0938
lfoot -13.3787 -22.9102
ltoes 12.6062
11
root -11.3575 17.3888 -0.0965573 -179.034 -24.5937 -178.13
lowerback 2.23321 4.23496 4.64098
upperback 0.961506 5.67797 1.68253
thorax 0.0216068 2.82007 -0.965983
lowerneck -14.4463 0.219818 -9.04427
upperneck 38.5139 -2.14363 5.74842
head 16.347 -2.44398 3.48602
rclavicle -5.54609e-014 -1.43125e-014
rhumerus -24.7676 -2.15079 -84.3203
rradius 48.7043
rwrist -16.1057
rhand -21.6478 14.4777
rfingers 7.12502
rthumb 4.74886 -15.4491
lclavicle -5.54609e-014 -1.43125e-014
lhumerus -35.1187 6.60229 85.0985
lradius 24.1367
lwrist 0.115754
lhand -19.6257 24.7007
lfingers 7.12502
lthumb 6.70111 54.5747
rfemur -5.71983 -11.8106 26.7915
rtibia 30.4505
rfoot -24.2631 -11.2392
rtoes 19.3075
lfemur -12.0222 -7.9976 -15.9863
ltibia 31.2581
lfoot -13.8126 -22.2731
ltoes 11.7658
12
root -11.3457 17.3832 -0.104802 -179.222 -24.4064 -178.044
lowerback 2.36214 3.99951 4.52158
upperback 1.06254 5.3617 1.75953
thorax 0.0192202 2.66089 -0.824889
lowerneck -14.1225 -0.273365 -9.73253
upperneck 38.7426 -3.0027 6.00139
head 16.5065 -2.92415 3.56806
rclavicle -3.62782e-015 -5.56597e-015
rhumerus -24.9783 -1.33416 -84.6384
rradius 48.845
rwrist -16.1893
rhand -21.6097 14.4778
rfingers 7.12502
rthumb 4.78563 -15.4482
lclavicle -3.62782e-015 -5.56597e-015
lhumerus -35.1054 6.81215 85.1398
lradius 24.4666
lwrist 0.0952002
lhand -19.3433 23.8653
lfingers 7.12502
lthumb 6.97374 53.7304
rfemur -5.48889 -11.6237 26.9114
rtibia 30.3865
rfoot -24.2283 -11.3265
rtoes 12.2599
lfemur -11.9083 -8.15768 -15.8871
ltibia 31.483
lfoot -13.9842 -21.9028
ltoes 12.1224
13
root -11.3378 17.3806 -0.112337 -179.488 -24.1285 -177.619
lowerback 2.39719 3.84056 4.85884
upperback 1.17875 5.14429 1.85794
thorax 0.13044 2.55251 -0.903889
lowerneck -13.9831 -0.72221 -10.5101
upperneck 39.0388 -3.81748 6.4186
head 16.7641 -3.37551 3.75232
rclavicle -4.07012e-014 -7.95139e-016
rhumerus -25.0375 -0.824646 -84.9283
rradius 48.8436
rwrist -16.2148
rhand -21.3793 14.4166
rfingers 7.12502
rthumb 5.00813 -15.5042
lclavicle -4.07012e-014 -7.95139e-016
lhumerus -35.0583 6.31737 85.4855
lradius 25.1203
lwrist 0.915226
lhand -19.9696 25.0122
lfingers 7.12502
lthumb 6.36921 54.8965
rfemur -5.31883 -11.6332 27.3222
rtibia 30.2753
rfoot -24.1711 -11.1603
rtoes 14.6223
lfemur -11.9376 -8.30399 -15.4431
ltibia 31.7604
lfoot -13.8106 -21.612
ltoes 12.6485
14
root -11.3267 17.3818 -0.121556 -179.668 -23.8084 -177.31
lowerback 2.42907 3.71564 5.03744
upperback 1.26085 4.97151 1.96599
thorax 0.194511 2.46523 -0.88838
lowerneck -13.5176 -0.951364 -10.1931
upperneck 38.9581 -4.15822 5.79271
head 16.6242 -3.57418 3.34126
rclavicle 3.74709e-014 3.49861e-014
rhumerus -25.0201 -0.342574 -85.1012
rradius 48.6641
rwrist -16.2162
rhand -21.2934 14.6309
rfingers 7.12502
rthumb 5.09109 -15.288
lclavicle 3.74709e-014 3.49861e-014
lhumerus -35.0758 5.90895 85.7942
lradius 25.7471
lwrist 1.63626
lhand -16.5255 22.9301
lfingers 7.12502
lthumb 9.69316 52.6871
rfemur -5.20166 -11.5967 27.6357
rtibia 30.1779
rfoot -24.2209 -10.9407
rtoes 14.8965
lfemur -12.0118 -8.54702 -15.1262
ltibia 32.0787
lfoot -13.9059 -21.1162
ltoes 11.632
